<svg width="39" height="39" viewBox="0 0 39 39" fill="none" xmlns="http://www.w3.org/2000/svg">
<path d="M13.8794 15.1714C17.688 15.1714 20.7754 12.084 20.7754 8.27542C20.7754 4.46685 17.688 1.37939 13.8794 1.37939C10.0709 1.37939 6.9834 4.46685 6.9834 8.27542C6.9834 12.084 10.0709 15.1714 13.8794 15.1714Z" stroke="white" stroke-width="2.75841" stroke-linecap="round" stroke-linejoin="round"/>
<path d="M18.017 34.4802H1.46655V32.9848C1.48851 30.8824 2.043 28.8196 3.07821 26.9897C4.11344 25.1596 5.59562 23.6217 7.38629 22.5197C9.177 21.4178 11.2178 20.7877 13.318 20.6882C15.4183 20.5888 17.5094 21.0233 19.3962 21.9512" stroke="white" stroke-width="2.75841" stroke-linecap="round" stroke-linejoin="round"/>
<path d="M29.0508 20.6882V37.2387" stroke="white" stroke-width="2.75841" stroke-linecap="round" stroke-linejoin="round"/>
<path d="M20.7754 28.9634H37.3258" stroke="white" stroke-width="2.75841" stroke-linecap="round" stroke-linejoin="round"/>
</svg>
