<svg width="28" height="28"  viewBox="0 0 15 14" fill="none" xmlns="http://www.w3.org/2000/svg">
<path stroke-width="2.14px" d="M0.953766 0.5H3.39594L4.26594 9.15C4.3021 9.38845 4.42322 9.6058 4.60699 9.762C4.79075 9.9182 5.02478 10.0027 5.26594 10H11.5659C11.784 10.0114 11.9998 9.95107 12.1803 9.82829C12.3609 9.7055 12.4963 9.52698 12.5659 9.32L13.8959 5.32C13.9455 5.16962 13.9587 5.0096 13.9343 4.85314C13.91 4.69667 13.8488 4.54822 13.7559 4.42C13.6591 4.28368 13.5296 4.17381 13.3794 4.10043C13.2292 4.02706 13.0629 3.99253 12.8959 4H3.74594" stroke="#121515" stroke-linecap="round" stroke-linejoin="round"/>
<path  d="M11.3959 13.5C11.1198 13.5 10.8959 13.2761 10.8959 13C10.8959 12.7239 11.1198 12.5 11.3959 12.5C11.672 12.5 11.8959 12.7239 11.8959 13C11.8959 13.2761 11.672 13.5 11.3959 13.5Z" stroke="#121515" stroke-linecap="round" stroke-linejoin="round"/>
<path d="M4.89595 13.5C4.6198 13.5 4.39595 13.2761 4.39595 13C4.39595 12.7239 4.6198 12.5 4.89595 12.5C5.17209 12.5 5.39595 12.7239 5.39595 13C5.39595 13.2761 5.17209 13.5 4.89595 13.5Z" stroke="#121515" stroke-linecap="round" stroke-linejoin="round"/>
</svg>
