<svg width="20" height="20" viewBox="0 0 20 20" fill="none" xmlns="http://www.w3.org/2000/svg">
<path d="M15.2036 5.17593C14.9966 5.17593 14.8289 5.00814 14.8289 4.80116C14.8289 4.59418 14.9966 4.42639 15.2036 4.42639" stroke="#121515" stroke-linecap="round" stroke-linejoin="round"/>
<path d="M15.2036 5.17593C15.4106 5.17593 15.5784 5.00814 15.5784 4.80116C15.5784 4.59418 15.4106 4.42639 15.2036 4.42639" stroke="#121515" stroke-linecap="round" stroke-linejoin="round"/>
<path d="M1 4.85713C1 2.7269 2.72689 1 4.85713 1H15.1429C17.2731 1 19 2.7269 19 4.85713V15.1428C19 17.273 17.2731 19 15.1429 19H4.85713C2.72689 19 1 17.273 1 15.1428V4.85713Z" stroke="#121515" stroke-linecap="round" stroke-linejoin="round"/>
<path d="M6.17737 9.99988C6.17737 10.5019 6.27624 10.999 6.46835 11.4627C6.66045 11.9265 6.94203 12.3479 7.29699 12.7029C7.65196 13.0579 8.07336 13.3394 8.53714 13.5315C9.00093 13.7236 9.49801 13.8225 10 13.8225C10.502 13.8225 10.9991 13.7236 11.4629 13.5315C11.9266 13.3394 12.3481 13.0579 12.703 12.7029C13.058 12.3479 13.3396 11.9265 13.5317 11.4627C13.7238 10.999 13.8226 10.5019 13.8226 9.99988C13.8226 8.98606 13.4199 8.01375 12.703 7.29687C11.9861 6.57999 11.0138 6.17725 10 6.17725C8.98618 6.17725 8.01388 6.57999 7.29699 7.29687C6.58011 8.01375 6.17737 8.98606 6.17737 9.99988Z" stroke="#121515" stroke-linecap="round" stroke-linejoin="round"/>
</svg>
