<svg width="33" height="33" viewBox="0 0 33 33" fill="none" xmlns="http://www.w3.org/2000/svg">
<path d="M21.8728 1.9166C23.7486 0.342015 26.5464 0.56922 27.9677 2.56122C28.3482 3.09225 28.7999 3.72631 29.5793 4.70117C30.8806 6.34266 31.5874 8.37655 31.5845 10.4712C31.5816 12.5659 30.8692 14.5979 29.5635 16.2358C27.5767 18.698 25.4949 21.1841 23.1647 23.5116C20.8346 25.8418 18.3485 27.9236 15.8863 29.913C14.2481 31.2184 12.216 31.9303 10.1213 31.9327C8.02658 31.9351 5.99285 31.2278 4.35166 29.9262C3.31339 29.0966 2.66348 28.6448 2.11396 28.2512C0.190646 26.8774 -0.0788293 24.1827 1.42442 22.3597C2.61064 20.9146 3.93424 19.5408 5.20764 18.1961C6.22214 17.1261 7.91825 17.0574 9.07276 17.9768C9.38187 18.2251 9.76759 18.5501 10.547 19.2819C14.3777 17.0072 16.7 14.6586 18.935 10.8965C18.475 10.4184 18.0352 9.92126 17.6167 9.40643C16.6973 8.25455 16.766 6.56372 17.8413 5.55716C19.1543 4.33131 20.4885 3.07376 21.8728 1.9166Z" stroke="white" stroke-width="1.72032" stroke-linecap="round" stroke-linejoin="round"/>
</svg>
