<svg width="18" height="18" viewBox="0 0 18 18" fill="none" xmlns="http://www.w3.org/2000/svg">
<path d="M9.00036 1.13062C4.71251 1.13195 1.13012 4.71896 1.13013 9.00328C1.13014 10.5479 1.58985 12.0737 2.44788 13.3635L1.12769 16.876L5.54849 16.0765C6.6284 16.6043 7.81424 16.8688 9.00036 16.8696C13.2919 16.8725 16.8776 13.2903 16.8776 9.00328C16.8776 4.72121 13.2906 1.12808 9.00036 1.13062Z" stroke="#121515" strokeLinecap="round" strokeLinejoin="round"/>
<path d="M9.43364 12.4704C10.4987 13.1541 11.6091 12.6561 12.3824 12.0794C12.9166 11.681 12.8988 10.9126 12.4426 10.4269L11.543 9.46917C11.2017 9.81042 10.5367 9.97933 10.0747 9.8387C9.08153 9.53644 8.6647 9.01892 8.32691 8.49272C7.93895 7.88836 8.37706 6.98575 8.71832 6.64451L7.71557 5.72907C7.29283 5.34315 6.65072 5.27802 6.28187 5.71575C5.55208 6.58178 5.09821 7.8966 5.63573 8.73379C6.60065 10.2367 7.93065 11.5056 9.43364 12.4704Z" stroke="#121515" strokeLinecap="round" strokeLinejoin="round"/>
</svg>
